<svg width="85" height="102" viewBox="0 0 85 102" fill="none" xmlns="http://www.w3.org/2000/svg">
<path d="M85 74.8322C81.6595 84.5225 71.6593 101.68 61.3573 101.867C54.5233 101.999 52.3261 97.8169 44.5144 97.8169C36.7072 97.8169 34.2634 101.74 27.8035 101.995C16.8724 102.415 0 77.2293 0 55.2645C0 35.0891 14.059 25.0886 26.3416 24.9058C32.929 24.7868 39.151 29.3472 43.1673 29.3472C47.2006 29.3472 54.757 23.8645 62.7003 24.6677C66.0238 24.8081 75.361 26.0066 81.3535 34.7704C65.4543 45.1493 67.9321 66.8547 85 74.8322ZM62.8066 0C50.7961 0.484515 40.9954 13.0862 42.364 23.5075C53.4649 24.3703 64.1155 11.9259 62.8066 0Z" fill="#F5F5F5"/>
</svg>
