<svg width="60" height="70" viewBox="0 0 60 70" fill="none" xmlns="http://www.w3.org/2000/svg">
<path d="M54.5202 0.195618H5.43649C1.48024 0.195618 0.0020752 1.67388 0.0020752 5.65214V53.6739C0.0020752 54.1304 0.0238129 54.5435 0.0672882 54.9348C0.154239 55.8043 0.175977 56.6521 0.980271 57.6087C1.06722 57.6956 1.89325 58.3261 1.89325 58.3261C2.32801 58.5434 2.63233 58.6956 3.1323 58.913L27.2829 69.0435C28.5436 69.6087 29.0653 69.8478 29.9783 69.8261C30.8913 69.8478 31.413 69.6304 32.6738 69.0435L56.8244 58.913C57.3243 58.7174 57.6287 58.5434 58.0634 58.3261C58.0634 58.3261 58.8894 57.7174 58.9764 57.6087C59.7807 56.6521 59.8024 55.8043 59.8894 54.9348C59.9329 54.5435 59.9546 54.1304 59.9546 53.6739V5.65214C59.9546 1.67388 58.4982 0.195618 54.5202 0.195618" fill="white"/>
<path d="M51.216 48.4783L51.1943 48.587L51.1725 48.7174L51.1508 48.8261L51.1073 48.9348L51.0856 49.0435L51.0421 49.1522L50.9986 49.2609L50.9551 49.3478L50.9117 49.4565L50.8464 49.5435L50.7812 49.6304L50.716 49.7174L50.6508 49.8044L50.5856 49.8913L50.4986 49.9783L50.4334 50.0435L50.3465 50.1305L50.2595 50.1957L50.1726 50.2609L50.0856 50.3044L49.9987 50.3696L49.89 50.4348L49.7813 50.4783L49.6726 50.5435L49.5639 50.587L49.4552 50.6304L49.3465 50.6739V50.6522L49.2379 50.6957L49.1292 50.7174L48.9335 50.7609L48.8248 50.7826L48.7162 50.8044L48.6075 50.8261L48.4988 50.8478L48.3684 50.8696L48.2597 50.8913H47.8249L47.7162 50.8696H47.5858L47.4771 50.8478L47.3684 50.8261L47.238 50.8044L47.1293 50.7826L47.0206 50.7609L46.9119 50.7391L46.8032 50.7174L46.6945 50.6957L46.5859 50.6739L46.4772 50.6304L46.3685 50.6087L46.2598 50.5652L46.1511 50.5218L46.0424 50.4783L45.9337 50.4348L45.825 50.3913L45.7164 50.3478L45.6077 50.3044L45.499 50.2609L45.3903 50.2174L45.2816 50.1739L45.1729 50.1087L45.086 50.0435L44.9773 49.9783L44.8903 49.9131L44.8034 49.8478L44.7164 49.7826L44.6295 49.7174L44.5425 49.6522L44.4556 49.587L44.3686 49.5218L44.2817 49.4348L44.3469 49.3478L44.4338 49.2609L44.499 49.1739L44.586 49.087L44.6512 49L44.7164 48.9131L44.8034 48.8261L44.8686 48.7391L44.9555 48.6522L45.0207 48.5652L45.1077 48.4783L45.1729 48.3913L45.2381 48.3044L45.3251 48.2174L45.3903 48.1304L45.4772 48.0435L45.5425 47.9565L45.6294 48.0218L45.7381 48.087L45.825 48.1522L45.9337 48.2174L46.0207 48.2826L46.1294 48.3478L46.2163 48.4131L46.325 48.4565L46.412 48.5218L46.5206 48.5652L46.6293 48.6087L46.738 48.6522L46.8467 48.6957L46.9554 48.7391L47.0641 48.7826L47.1728 48.8261L47.2815 48.8696L47.3902 48.8913L47.6075 48.9348L47.738 48.9565L47.8466 48.9783H47.9553L48.0858 49H48.3249L48.4553 48.9783L48.564 48.9565L48.6727 48.9348L48.7814 48.9131L48.8683 48.8696L48.9553 48.8261L49.0422 48.7609L49.1074 48.6739L49.1509 48.587L49.1944 48.4783L49.2161 48.3696V48.3478L49.1944 48.2174L49.1509 48.1087L49.0857 48.0218L48.9987 47.9565L48.9118 47.8913L48.8248 47.8478L48.7162 47.8044L48.6075 47.7609L48.477 47.6957L48.3901 47.6739L48.3031 47.6522L48.1944 47.6087L48.0858 47.587L47.9771 47.5435L47.8684 47.5218L47.738 47.4783L47.6293 47.4565L47.4988 47.4131L47.3902 47.3913L47.2815 47.3478L47.1728 47.3261L47.0641 47.2826L46.9554 47.2391L46.8467 47.2174L46.738 47.1739L46.6293 47.1304L46.5206 47.087L46.3902 47.0435L46.2815 47L46.1728 46.9565L46.0642 46.9131L45.9555 46.8478L45.8468 46.7826L45.7598 46.7174L45.6511 46.6522L45.5642 46.587L45.4772 46.5218L45.3903 46.4565L45.3033 46.3696L45.2164 46.2826L45.1512 46.1957L45.086 46.1087L45.0207 46.0218L44.9555 45.9348L44.8903 45.8261L44.8468 45.7391L44.8034 45.6522L44.7816 45.5435L44.7382 45.4565L44.7164 45.3478L44.6947 45.2391L44.6729 45.1305L44.6512 45.0218L44.6295 44.8913V44.6304L44.6512 44.5218L44.6729 44.4131L44.6947 44.3044L44.7164 44.1957L44.7382 44.087L44.7816 43.9783L44.8034 43.8696L44.8468 43.7609L44.8903 43.6522L44.9338 43.5435L44.999 43.4348L45.0642 43.3261L45.1294 43.2391L45.1946 43.1522L45.2816 43.0652L45.3685 42.9783L45.4555 42.8913L45.5425 42.8044L45.6294 42.7391L45.7164 42.6739L45.8033 42.6087L45.8903 42.5435L45.9989 42.4783L46.1076 42.4348L46.2163 42.3696L46.325 42.3261L46.4337 42.2826L46.5424 42.2391L46.6511 42.1957L46.738 42.1739L46.8467 42.1522L46.9554 42.1304L47.0641 42.1087L47.1728 42.087L47.2815 42.0652L47.3902 42.0435L47.4988 42.0218L47.6075 42H48.0858L48.2162 42.0218L48.3466 42.0435H48.4553L48.5857 42.0652L48.6944 42.087L48.8248 42.1087L48.9335 42.1304L49.0422 42.1522L49.1509 42.1739L49.2596 42.1957L49.3683 42.2174L49.477 42.2609L49.5857 42.3044L49.6944 42.3261L49.803 42.3696L49.9117 42.4131L50.0204 42.4565L50.1291 42.5L50.2378 42.5435L50.3465 42.6087L50.4334 42.6522L50.5421 42.7174L50.6508 42.7826L50.7378 42.8478L50.8464 42.9131L50.9334 42.9783L51.0203 43.0435L51.1073 43.1087L51.1943 43.1739L51.129 43.2609L51.0638 43.3478L50.9986 43.4348L50.9334 43.5218L50.8682 43.6304L50.803 43.7174L50.7378 43.8044L50.6725 43.8913L50.6073 43.9783L50.5421 44.0652L50.4769 44.1522L50.4117 44.2391L50.3465 44.3478L50.2813 44.4348L50.2161 44.5218L49.9987 45L49.9335 45.087L49.8465 45.0218L49.7378 44.9565L49.6509 44.8913L49.5639 44.8261L49.4552 44.7826L49.3683 44.7174L49.2596 44.6739L49.1726 44.6304L49.064 44.587L48.977 44.5435L48.8683 44.5L48.7814 44.4565L48.6509 44.4131L48.5423 44.3696L48.4336 44.3261L48.3249 44.3044L48.2597 44.3478L48.151 44.3261L48.0423 44.3044L47.9336 44.2826L47.8249 44.2609H47.5858L47.4554 44.2826L47.3467 44.3044L47.238 44.3261L47.151 44.3696L47.0641 44.4131L46.9554 44.5L46.8902 44.6087L46.8467 44.7174L46.825 44.8261V44.8478L46.8467 45L46.8902 45.1305L46.9337 45.1957L47.0206 45.2826L47.1293 45.3478L47.2163 45.4131L47.3249 45.4565L47.4554 45.5L47.5858 45.5435L47.6727 45.5652L47.7597 45.6087L47.8684 45.6304L47.9771 45.6739L48.0858 45.6957L48.2162 45.7391L48.3466 45.7826L48.477 45.8261L48.6075 45.8478L48.7162 45.8913L48.8466 45.9348L48.9553 45.9565L49.064 46L49.1726 46.0435L49.2813 46.087L49.39 46.1304L49.4987 46.1739L49.6074 46.1957L49.7378 46.2391L49.8465 46.3044L49.9552 46.3478L50.0639 46.4131L50.1726 46.4783L50.2813 46.5435L50.3682 46.6087L50.4552 46.6739L50.5421 46.7391L50.6291 46.8261L50.716 46.9131L50.803 47L50.8899 47.087L50.9551 47.1739L51.0203 47.2826L51.0856 47.3696L51.1508 47.4783L51.1943 47.5652L51.2377 47.6739L51.2595 47.7826L51.2812 47.8913L51.3247 48.1087L51.3464 48.2174L51.3681 48.3478V48.6087L51.216 48.4783V48.4783ZM43.4991 50.6957H37.1734V42.6305H43.5426V44.4565H39.282V45.7826H43.1078V47.5H39.282V48.8696H43.6078V50.6957H43.4991V50.6957ZM35.4344 50.6957H33.4128V45.9348L33.3476 46.0218L33.2824 46.1304L33.2172 46.2174L33.152 46.3044L33.0868 46.4131L33.0215 46.5L32.9563 46.587L32.8911 46.6957L32.8259 46.7826L32.7607 46.8696L32.6955 46.9565L32.6303 47.0652L32.5651 47.1522L32.4998 47.2391L32.4346 47.3478L32.3694 47.4348L32.3042 47.5218L32.239 47.6305L32.1955 47.7174L32.1303 47.8044L32.0651 47.9131L31.9999 48L31.9347 48.087L31.8694 48.1957L31.8042 48.2826L31.7608 48.3696L31.6955 48.4565L31.6303 48.5652L31.5651 48.6522L31.4999 48.7391L31.4564 48.8478L31.3912 48.9348L31.326 49.0218L31.2608 49.1305L31.1956 49.2174H31.1521L31.0869 49.1087L31.0217 49.0218L30.9565 48.9131L30.8913 48.8261L30.826 48.7174L30.7608 48.6304L30.6956 48.5218L30.6304 48.4348L30.5652 48.3261L30.5217 48.2391L30.4565 48.1304L30.3913 48.0435L30.3261 47.9348L30.4348 47.8261L30.3695 47.7174L30.3043 47.6305L30.2391 47.5218L30.1739 47.4348L30.1087 47.3261L30.0435 47.2391L30 47.1739L29.9348 47.087L29.8696 46.9783L29.8044 46.8913L29.7392 46.7826L29.6739 46.6957L29.6087 46.587L29.5653 46.5218L29.5 46.4131L29.4348 46.3261L29.3696 46.2174L29.3044 46.1304L29.2392 46.0218L29.174 45.9348V50.6739H27.0872V42.6087H29.3479L29.4131 42.6957L29.4783 42.8044L29.5435 42.8913L29.6087 43L29.6739 43.087L29.7392 43.1957L29.8044 43.2826L29.8696 43.3913L29.9348 43.4783L30 43.5652L30.0652 43.6739L30.1304 43.7609L30.1956 43.8696L30.2609 43.9565L30.3261 44.0652L30.3913 44.1522L30.4565 44.2391L30.5217 44.3478L30.5869 44.4348L30.6521 44.5435L30.7174 44.6304L30.7826 44.7391L30.8478 44.8261L30.8913 44.9348L30.9565 45.0218L30.9999 45.1087L31.0652 45.2174L31.1304 45.3044L31.1956 45.4131L31.2608 45.5L31.3043 45.6087L31.3695 45.6957L31.4347 45.8044L31.4999 45.8913L31.5651 45.8044L31.6303 45.6957L31.6955 45.6087L31.7608 45.5L31.826 45.4131L31.8912 45.3044L31.9564 45.2174L32.0216 45.1087L32.0868 45.0218L32.1303 44.9348L32.1955 44.8261L32.2607 44.7391L32.3259 44.6304L32.3912 44.5435L32.4564 44.4348L32.5216 44.3478L32.5868 44.2391L32.652 44.1522L32.7172 44.0652L32.7824 43.9565L32.8476 43.8696L32.9129 43.7609L32.9781 43.6739L33.0433 43.5652L33.0868 43.4783L33.152 43.3913L33.2172 43.2826L33.2824 43.1957L33.3476 43.087L33.4128 43L33.478 42.8913L33.5432 42.8044L33.6085 42.6957L33.6737 42.6087H35.9344V50.6739L35.4344 50.6957V50.6957ZM22.6527 47.3696L22.6092 47.2609L22.5657 47.1522L22.5222 47.0435L22.4788 46.9348L22.4353 46.8261L22.3918 46.7174L22.3483 46.6087L22.3049 46.5L22.2614 46.3913L22.2179 46.2826L22.1744 46.1739L22.131 46.0652L22.0875 45.9565L22.044 45.8478L22.0005 45.7391L21.9571 45.6304L21.9136 45.5218L21.8701 45.4131L21.8266 45.3044L21.7832 45.1957L21.7397 45.087L21.6962 44.9783L21.6527 45.087L21.6093 45.1957L21.5658 45.3044L21.5223 45.4131L21.4788 45.5218L21.4354 45.6304L21.3919 45.7391L21.3484 45.8478L21.3049 45.9565L21.2615 46.0652L21.218 46.1739L21.1745 46.2826L21.131 46.3913L21.0876 46.5L21.0441 46.6087L21.0006 46.7174L20.9571 46.8261L20.9137 46.9348L20.8702 47.0435L20.8267 47.1522L20.7832 47.2609L20.7398 47.3696L20.6963 47.4783H22.5657L22.6527 47.3696V47.3696ZM26.109 50.6957H23.9569L23.9135 50.587L23.87 50.4783L23.8265 50.3696L23.783 50.2609L23.7396 50.1522L23.6961 50.0435L23.6526 49.9348L23.6091 49.8261L23.5657 49.7174L23.5222 49.6087L23.4787 49.5L23.4352 49.3913L23.3918 49.2826L23.3483 49.1739L23.3048 49.0652H20.1746L20.1311 49.1739L20.0876 49.2826L20.0441 49.3913L20.0007 49.5L19.9572 49.6087L19.8702 49.8044L19.8268 49.9131L19.7833 50.0218L19.7398 50.1305L19.6963 50.2391L19.6529 50.3478L19.6094 50.4565L19.5659 50.5652L19.5224 50.6739H17.3487L17.3921 50.5652L17.4791 50.3696L17.5226 50.2609L17.5661 50.1522L17.653 49.9565L17.6965 49.8478L17.74 49.7391L17.7834 49.6304L17.8269 49.5652L17.8704 49.4565L17.9139 49.3478L17.9573 49.2391L18.0008 49.1305L18.0443 49.0218L18.0878 48.9131L18.1312 48.8044L18.1747 48.6957L18.2182 48.587L18.2617 48.4783L18.3051 48.3696L18.3921 48.1739L18.4356 48.0652L18.479 47.9565L18.5225 47.8478L18.566 47.7391L18.6095 47.6305L18.6529 47.5218L18.6964 47.4131L18.7399 47.3044L18.7834 47.1957L18.8268 47.087L18.8703 46.9783L18.9138 46.8696L18.9573 46.7609L19.0007 46.6522L19.0442 46.5435L19.0877 46.4348L19.1312 46.3261L19.1746 46.2174L19.2181 46.1087L19.2616 46L19.3051 45.8913L19.3485 45.7826L19.392 45.6739L19.4355 45.5652L19.479 45.4565L19.5224 45.3478L19.5659 45.2391L19.6094 45.1305L19.6529 45.0218L19.6963 44.9131L19.7398 44.8044L19.7833 44.6957L19.8702 44.5L19.9137 44.3913L19.9572 44.2826L20.0007 44.1739L20.0441 44.0652L20.0876 43.9565L20.1311 43.8478L20.1746 43.7391L20.218 43.6304L20.2615 43.5218L20.305 43.4131L20.3267 43.3044L20.3702 43.1957L20.4137 43.087L20.4572 42.9783L20.5006 42.8696L20.5441 42.7609L20.5876 42.6522L20.6311 42.5435L20.6745 42.4348L20.7615 42.2391L20.805 42.1304H22.8483L22.8918 42.2391L22.9353 42.3478L22.9787 42.4565L23.0222 42.5652L23.0657 42.6739L23.1092 42.7826L23.1526 42.8913L23.1961 43L23.2396 43.1087L23.2831 43.2174L23.3265 43.3261L23.37 43.4348L23.4135 43.5435L23.457 43.6522L23.5004 43.7609L23.5439 43.8696L23.5874 43.9783L23.6309 44.087L23.6743 44.1957L23.7178 44.3044L23.7613 44.4131L23.8048 44.5218L23.8482 44.6304L23.8917 44.7391L23.9352 44.8478L23.9787 44.9565L24.0221 45.0652L24.0656 45.1739L24.1091 45.2826L24.1526 45.3913L24.2395 45.587L24.283 45.6957L24.3265 45.8044L24.3699 45.9131L24.4134 46.0218L24.4569 46.1304L24.5004 46.2391L24.5438 46.3478L24.5873 46.4565L24.6308 46.5652L24.6743 46.6739L24.7177 46.7826L24.7612 46.8913L24.8047 47L24.8482 47.1087L24.8917 47.2174L24.9351 47.3261L24.9786 47.4348L25.0221 47.5435L25.0656 47.6522L25.109 47.7609L25.1525 47.8696L25.196 47.9783L25.2395 48.087L25.2829 48.1957L25.3264 48.3044L25.3699 48.4131L25.4134 48.5218L25.4568 48.6304L25.5003 48.7391L25.5438 48.8478L25.5873 48.9565L25.6307 49.0652L25.6742 49.1739L25.7177 49.2826L25.7612 49.3913L25.8046 49.5L25.8481 49.6087L25.8916 49.7174L25.9351 49.8261L25.9785 49.9348L26.022 50.0435L26.0655 50.1522L26.109 50.2609L26.1524 50.3696L26.1959 50.4783L26.2394 50.587L26.3263 50.7826L26.109 50.6957V50.6957ZM16.4574 49.6522L16.3705 49.7174L16.2835 49.7826L16.1966 49.8478L16.1096 49.9131L16.0227 49.9783L15.9357 50.0435L15.8488 50.1087L15.7401 50.1739L15.6314 50.2391L15.5227 50.3044L15.414 50.3478L15.3053 50.4131L15.1966 50.4565L15.088 50.5L14.9793 50.5435L14.8706 50.587L14.7619 50.6304L14.6532 50.6739L14.5445 50.7174L14.4358 50.7609L14.3271 50.8044L14.2184 50.8261L14.1098 50.8478L14.0011 50.8696L13.8924 50.8913L13.7837 50.9131L13.6533 50.9348L13.5446 50.9565L13.4142 50.9783L13.3055 51L13.175 51.0218H12.8272L12.7185 51L12.5881 50.9783L12.4794 50.9565L12.3707 50.9348L12.2621 50.9131L12.1534 50.8913L12.0447 50.8696L11.936 50.8478L11.8273 50.8261L11.7186 50.8044L11.6099 50.7826L11.5012 50.7391L11.3925 50.6957L11.2839 50.6522L11.1752 50.6087L11.0665 50.5652L10.9578 50.5218L10.8491 50.4783L10.7404 50.4131L10.6535 50.3696L10.5448 50.3044L10.4578 50.2391L10.3709 50.1739L10.2839 50.1087L10.197 50.0435L10.11 49.9783L10.0231 49.9131L9.93612 49.8478L9.84917 49.7609L9.76222 49.6957L9.67527 49.6087L9.58832 49.5218L9.52311 49.4348L9.4579 49.3478L9.39268 49.2609L9.32747 49.1739L9.26226 49.087L9.19704 49L9.15357 48.9131L9.08835 48.8044L9.02314 48.7174L8.97967 48.6087L8.93619 48.5L8.89272 48.3913L8.84924 48.2826L8.80576 48.1957L8.76229 48.087L8.74055 47.9783L8.69708 47.8696L8.67534 47.7609L8.63186 47.6522L8.61013 47.5435V47.4348L8.58839 47.3261V47.2174L8.56665 47.1087V46.1739L8.58839 46.0435L8.61013 45.9348L8.63186 45.8261L8.6536 45.7174L8.69708 45.6087L8.71881 45.5L8.76229 45.3913L8.80576 45.2826L8.84924 45.1739L8.89272 45.0652L8.93619 44.9565L8.97967 44.8478L9.02314 44.7391L9.06662 44.6304L9.13183 44.5218L9.19704 44.4348L9.24052 44.3478L9.30573 44.2609L9.37094 44.1739L9.43616 44.087L9.50137 44L9.56658 43.9131L9.6318 43.8261L9.71875 43.7391L9.78396 43.6522L9.87091 43.5652L9.95786 43.4783L10.0448 43.4131L10.1318 43.3261L10.2187 43.2609L10.3057 43.1957L10.3926 43.1304L10.4796 43.0652L10.5665 43L10.6535 42.9348L10.7622 42.8696L10.8708 42.8044L10.9795 42.7391L11.0882 42.6957L11.1969 42.6522L11.3056 42.587L11.3925 42.5435L11.5012 42.5L11.6099 42.4565L11.7186 42.4348L11.8273 42.3913L11.936 42.3696L12.0447 42.3261L12.1534 42.3044L12.2621 42.2826L12.3707 42.2609L12.4794 42.2391L12.5881 42.2174L12.6968 42.1957L12.8055 42.1739H13.262L13.3924 42.1957L13.5228 42.2174H13.6315L13.7402 42.2391L13.8706 42.2609L13.9793 42.2826L14.088 42.3044L14.1967 42.3261L14.3054 42.3478L14.4141 42.3696L14.5228 42.3913L14.6315 42.4348L14.7402 42.4565L14.8271 42.5L14.9358 42.5435L15.1314 42.6305L15.2401 42.6739L15.3488 42.7391L15.4575 42.7826L15.5444 42.8478L15.6531 42.9131L15.7401 42.9783L15.8488 43.0435L15.9357 43.1087L16.0227 43.1739L16.1096 43.2391L16.1966 43.3044L16.2835 43.3913L16.3705 43.4565L16.3053 43.5435L16.2183 43.6304L16.1531 43.7174L16.0662 43.8044L16.0009 43.8913L15.9357 43.9783L15.8488 44.0652L15.7836 44.1522L15.7183 44.2391L15.6314 44.3261L15.5662 44.4131L15.4792 44.5L15.414 44.587L15.3488 44.6739L15.2619 44.7609L15.1966 44.8478L15.1097 44.9348L15.0445 45.0218L14.9575 44.9565L14.8706 44.8696L14.7836 44.8044L14.6967 44.7391L14.6097 44.6739L14.5228 44.6087L14.4358 44.5435L14.3271 44.4783L14.2402 44.4348L14.1532 44.3913L14.0663 44.3478L13.9576 44.3044L13.8489 44.2609L13.7402 44.2391L13.6315 44.2174L13.5228 44.1957L13.4142 44.1739L13.2837 44.1522L13.1533 44.1305H12.9142L12.8055 44.1522L12.6968 44.1739L12.5881 44.1957L12.4794 44.2174L12.3707 44.2609L12.2621 44.3044L12.1751 44.5652L12.0664 44.6087L11.9795 44.6739L11.8925 44.7391L11.8056 44.8044L11.7186 44.8696L11.6317 44.9348L11.5447 45L11.4795 45.087L11.3925 45.1739L11.3273 45.2609L11.2621 45.3478L11.1969 45.4348L11.1534 45.5435L11.0882 45.6304L11.0447 45.7391L11.0013 45.8478L10.9578 45.9565L10.9143 46.0652L10.8926 46.1739L10.8708 46.2826L10.8491 46.4131V47.2174L10.8708 47.3261L10.8926 47.4348L10.9143 47.5435L10.9578 47.6522L11.0882 47.6087L11.1317 47.7174L11.1752 47.8261L11.2404 47.9348L11.3491 48.1087L11.4143 48.1957L11.4795 48.2826L11.5665 48.3696L11.6317 48.4565L11.7186 48.5218L11.8056 48.587L11.8925 48.6522L11.9795 48.7174L12.0664 48.7826L12.1751 48.8261L12.2838 48.8696L12.3925 48.9131L12.5012 48.9565L12.6099 49L12.7185 49.0218L12.8272 49.0435L12.9359 49.0652L13.0664 49.087H13.262L13.3924 49.0652L13.5228 49.0435L13.6315 49.0218L13.7402 49L13.8489 48.9783L13.9576 48.9565L14.0663 48.9348L14.175 48.8913L14.2619 48.8478L14.3706 48.8044L14.4576 48.7609L14.5445 48.6957V47.6087H12.9359V46H16.5226V49.6087L16.4574 49.6522V49.6522ZM12.9142 24.3913H17.6965V20.6957H12.9142V13.1522H17.8921V9.45654H8.84924V36.1304H17.9573V32.4348H12.9142V24.3913V24.3913ZM47.1293 25.1957V31.2174C47.1293 32.2826 46.6293 32.7826 45.6077 32.7826H44.8468C43.7817 32.7826 43.2817 32.2826 43.2817 31.2174V14.3696C43.2817 13.3044 43.7817 12.8044 44.8468 12.8044H45.5207C46.5424 12.8044 47.0424 13.3044 47.0424 14.3696V19.587H51.0203V14.1305C51.0203 10.8261 49.4335 9.21741 46.1294 9.21741H44.1512C40.8471 9.21741 39.2168 10.8478 39.2168 14.1739V31.3913C39.2168 34.7174 40.8471 36.3478 44.1512 36.3478H46.1511C49.4552 36.3478 51.0856 34.7174 51.0856 31.3913V25.1739H47.1293V25.1957ZM33.0433 9.45654H37.1082V36.1304H33.0433V9.45654ZM27.1524 21.3044C27.1524 22.3696 26.6524 22.8696 25.6307 22.8696H23.9569V13.0435H25.6307C26.6524 13.0435 27.1524 13.5435 27.1524 14.6087V21.3044ZM26.2829 9.45654H19.9137V36.1304H23.9787V26.4565H26.2829C29.587 26.4565 31.2173 24.8261 31.2173 21.5V14.4131C31.2173 11.087 29.587 9.45654 26.2829 9.45654V9.45654ZM18.4138 60.2391H41.6514L29.8044 64.1522L18.4138 60.2391" fill="black"/>
</svg>
