<svg width="82" height="109" viewBox="0 0 82 109" fill="none" xmlns="http://www.w3.org/2000/svg">
<path fill-rule="evenodd" clip-rule="evenodd" d="M25.625 0C28.4039 32.6498 0 43.8904 0 72.648C0 92.1815 13.981 108.854 41 108.999C68.019 109.145 82 88.9524 82 68.3243C82 49.5174 72.6064 31.7824 54.8853 20.7553C59.0947 32.5953 53.4913 43.4089 48.0474 47.1331C48.3663 31.9776 42.9224 9.48747 25.625 0ZM47.0862 59.0412C64.1923 77.1578 53.6872 99.9159 39.9477 99.9159C31.5882 99.9159 27.2878 94.1708 27.3333 88.2122C27.4199 77.1624 39.8019 77.1533 47.0862 59.0412Z" fill="#E05638"/>
</svg>
