<svg width="106" height="88" viewBox="0 0 106 88" fill="none" xmlns="http://www.w3.org/2000/svg">
<path d="M26.5 0L31.6719 0.893192C30.104 10.7712 35.1655 11.9768 43.5925 13.5388C50.0762 14.7401 57.4167 16.2756 57.4167 27.9885V30.8H52.1919V27.9885C52.1919 21.1419 50.0716 20.0288 42.6341 18.6516C31.2258 16.5396 24.5434 12.5312 26.5 0ZM106 61.6C106 76.1728 94.4856 88 80.2729 88C73.5993 88 67.5264 85.382 62.9552 81.114C57.1649 75.7063 48.4773 76.1331 42.8593 81.2811C38.3102 85.4523 32.3079 88 25.7271 88C11.5187 88 0 76.1728 0 61.6C0 47.0272 11.5187 35.2 25.7271 35.2L81.2137 35.2308C94.9847 35.7411 106 47.3528 106 61.6ZM39.75 57.1999H30.9167V48.4H22.0833V57.1999H13.25V65.9999H22.0833V74.8H30.9167V65.9999H39.75V57.1999ZM57.4167 61.6H48.5833V65.9999H57.4167V61.6ZM75.0833 52.7999C75.0833 55.2287 77.0576 57.1999 79.5 57.1999C81.9424 57.1999 83.9167 55.2287 83.9167 52.7999C83.9167 50.3711 81.9424 48.4 79.5 48.4C77.0576 48.4 75.0833 50.3711 75.0833 52.7999ZM75.0833 61.6C75.0833 59.1712 73.1091 57.1999 70.6667 57.1999C68.2241 57.1999 66.25 59.1712 66.25 61.6C66.25 64.0288 68.2241 65.9999 70.6667 65.9999C73.1091 65.9999 75.0833 64.0288 75.0833 61.6ZM83.9167 70.3999C83.9167 67.9711 81.9424 65.9999 79.5 65.9999C77.0576 65.9999 75.0833 67.9711 75.0833 70.3999C75.0833 72.8287 77.0576 74.8 79.5 74.8C81.9424 74.8 83.9167 72.8287 83.9167 70.3999ZM92.75 61.6C92.75 59.1712 90.7756 57.1999 88.3333 57.1999C85.8909 57.1999 83.9167 59.1712 83.9167 61.6C83.9167 64.0288 85.8909 65.9999 88.3333 65.9999C90.7756 65.9999 92.75 64.0288 92.75 61.6Z" fill="#EFEFEF"/>
</svg>
