<svg width="115" height="111" viewBox="0 0 115 111" fill="none" xmlns="http://www.w3.org/2000/svg">
<path d="M50.8426 5.48934C52.9381 -0.959835 62.0619 -0.959818 64.1574 5.48936L72.8792 32.3323C73.8163 35.2165 76.504 37.1692 79.5366 37.1692H107.761C114.542 37.1692 117.361 45.8465 111.875 49.8323L89.0415 66.4222C86.5881 68.2047 85.5615 71.3643 86.4986 74.2485L95.2204 101.091C97.3159 107.541 89.9345 112.903 84.4485 108.918L61.6145 92.3278C59.1611 90.5453 55.8389 90.5453 53.3855 92.3278L30.5515 108.918C25.0655 112.903 17.6841 107.541 19.7796 101.091L28.5014 74.2484C29.4385 71.3643 28.4119 68.2047 25.9585 66.4222L3.12451 49.8323C-2.36149 45.8465 0.45796 37.1692 7.23902 37.1692H35.4634C38.496 37.1692 41.1837 35.2165 42.1208 32.3323L50.8426 5.48934Z" fill="#8B8B8B"/>
</svg>
