<svg width="115" height="111" viewBox="0 0 115 111" fill="none" xmlns="http://www.w3.org/2000/svg">
<path d="M50.6961 4.90373C52.7949 -1.60936 61.9329 -1.60934 64.0317 4.90375L72.7671 32.0127C73.7057 34.9255 76.3976 36.8975 79.4349 36.8975H107.703C114.495 36.8975 117.318 45.6608 111.824 49.6861L88.9546 66.4405C86.4974 68.2406 85.4692 71.4315 86.4078 74.3443L95.1432 101.453C97.242 107.967 89.849 113.382 84.3545 109.357L61.4848 92.6028C59.0276 90.8026 55.7002 90.8026 53.243 92.6028L30.3733 109.357C24.8787 113.382 17.4858 107.967 19.5846 101.453L28.32 74.3442C29.2585 71.4315 28.2303 68.2406 25.7731 66.4405L2.90345 49.6861C-2.59112 45.6608 0.232731 36.8975 7.02438 36.8975H35.2929C38.3302 36.8975 41.0221 34.9255 41.9607 32.0127L50.6961 4.90373Z" fill="#FFE600"/>
<path d="M57.3639 0V91.262C58.1651 91.262 59.7009 91.9352 60.3686 92.2719L84.9068 109.945C94.1212 113.985 96.4248 105.401 95.4232 101.361L86.91 75.6084C85.7081 71.9727 87.4107 68.3707 88.4123 67.0241L112.951 48.8457C118.459 41.7764 111.448 36.7268 108.444 36.7268H78.8975C75.6925 36.7268 73.8407 33.9669 73.114 32.8221C64.6007 4.03964 63.874 4.61773e-05 57.3639 0Z" fill="#8B8B8B"/>
</svg>
