<svg width="205" height="150" viewBox="0 0 205 150" fill="none" xmlns="http://www.w3.org/2000/svg">
<g id="Group">
<g id="Group_2">
<path id="Vector" d="M0 54.5454V116.252C0 134.89 15.1095 150 33.7483 150C42.6989 150 51.283 146.444 57.6119 140.115L89.8061 107.921C93.4227 104.305 95.4546 99.3993 95.4546 94.2848V54.5454H0Z" fill="#A5C3DC"/>
</g>
<g id="Group_3">
<path id="Vector_2" d="M204.545 54.5454V116.252C204.545 134.89 189.436 150 170.797 150C161.847 150 153.262 146.444 146.933 140.115L114.739 107.921C111.123 104.305 109.091 99.3993 109.091 94.2848V54.5454H204.545Z" fill="#A5C3DC"/>
</g>
<g id="Group_4">
<path id="Vector_3" d="M156.818 6.81818H47.7273C21.3682 6.81818 0 28.1864 0 54.5454V107.437C0 123.413 12.9511 136.364 28.927 136.364C36.5987 136.364 43.9568 133.316 49.3815 127.891L69.3516 107.921C69.3682 107.905 69.3844 107.888 69.401 107.872C72.894 104.353 77.5777 102.273 82.5362 102.273H122.01C126.968 102.273 131.652 104.353 135.145 107.872C135.162 107.888 135.178 107.905 135.194 107.921L155.164 127.891C160.589 133.316 167.947 136.364 175.619 136.364C191.595 136.364 204.546 123.413 204.546 107.437V54.5454C204.545 28.1864 183.177 6.81818 156.818 6.81818Z" fill="#D7E6F0"/>
</g>
<g id="Group_5">
<path id="Vector_4" d="M117.813 27.2727H86.7324C83.7976 27.2727 81.1922 25.3947 80.2641 22.6108L75 6.81818H129.545L124.281 22.6108C123.353 25.3947 120.748 27.2727 117.813 27.2727Z" fill="#A5C3DC"/>
</g>
<g id="Move1">
<path id="Vector_5" d="M75 95.4545C84.414 95.4545 92.0455 87.823 92.0455 78.4091C92.0455 68.9951 84.414 61.3636 75 61.3636C65.5861 61.3636 57.9546 68.9951 57.9546 78.4091C57.9546 87.823 65.5861 95.4545 75 95.4545Z" fill="#A5C3DC"/>
</g>
<g id="Move2">
<path id="Vector_6" d="M85.2273 73.2955H80.1136V68.1818C80.1136 66.2992 78.5872 64.7727 76.7046 64.7727H73.2955C71.4128 64.7727 69.8864 66.2992 69.8864 68.1818V73.2955H64.7727C62.8901 73.2955 61.3636 74.8219 61.3636 76.7046V80.1136C61.3636 81.9963 62.8901 83.5227 64.7727 83.5227H69.8864V88.6364C69.8864 90.519 71.4128 92.0455 73.2955 92.0455H76.7046C78.5872 92.0455 80.1136 90.519 80.1136 88.6364V83.5227H85.2273C87.11 83.5227 88.6364 81.9963 88.6364 80.1136V76.7046C88.6364 74.8219 87.11 73.2955 85.2273 73.2955Z" fill="#555A6E"/>
</g>
<g id="Look1">
<path id="Vector_7" d="M129.545 95.4545C138.959 95.4545 146.591 87.823 146.591 78.4091C146.591 68.9951 138.959 61.3636 129.545 61.3636C120.131 61.3636 112.5 68.9951 112.5 78.4091C112.5 87.823 120.131 95.4545 129.545 95.4545Z" fill="#463C4B"/>
</g>
<g id="Look2">
<path id="Vector_8" d="M129.545 88.6363C135.194 88.6363 139.773 84.0574 139.773 78.4091C139.773 72.7607 135.194 68.1818 129.545 68.1818C123.897 68.1818 119.318 72.7607 119.318 78.4091C119.318 84.0574 123.897 88.6363 129.545 88.6363Z" fill="#555A6E"/>
</g>
<g id="Group_6">
<g id="controllerLeft2">
<path id="Vector_9" d="M40.9091 63.6362C50.323 63.6362 57.9546 56.0047 57.9546 46.5908C57.9546 37.1768 50.323 29.5453 40.9091 29.5453C31.4952 29.5453 23.8636 37.1768 23.8636 46.5908C23.8636 56.0047 31.4952 63.6362 40.9091 63.6362Z" fill="#463C4B"/>
</g>
<g id="controllerLeft1">
<path id="Vector_10" d="M40.9092 56.818C46.5575 56.818 51.1364 52.2391 51.1364 46.5908C51.1364 40.9424 46.5575 36.3635 40.9092 36.3635C35.2608 36.3635 30.6819 40.9424 30.6819 46.5908C30.6819 52.2391 35.2608 56.818 40.9092 56.818Z" fill="#555A6E"/>
</g>
</g>
<g id="Group_7">
<g id="controllerPoint1">
<path id="Vector_11" d="M163.636 38.6365C167.402 38.6365 170.454 35.5839 170.454 31.8183C170.454 28.0527 167.402 25.0001 163.636 25.0001C159.871 25.0001 156.818 28.0527 156.818 31.8183C156.818 35.5839 159.871 38.6365 163.636 38.6365Z" fill="#00D2D2"/>
</g>
<g id="controllerPoint3">
<path id="Vector_12" d="M163.636 65.9092C167.402 65.9092 170.454 62.8566 170.454 59.0911C170.454 55.3255 167.402 52.2729 163.636 52.2729C159.871 52.2729 156.818 55.3255 156.818 59.0911C156.818 62.8566 159.871 65.9092 163.636 65.9092Z" fill="#00D2D2"/>
</g>
<g id="controllerPoint4">
<path id="Vector_13" d="M150 52.2728C153.766 52.2728 156.818 49.2202 156.818 45.4546C156.818 41.6891 153.766 38.6365 150 38.6365C146.234 38.6365 143.182 41.6891 143.182 45.4546C143.182 49.2202 146.234 52.2728 150 52.2728Z" fill="#FF6E91"/>
</g>
<g id="controllerPoint2">
<path id="Vector_14" d="M177.273 52.2728C181.038 52.2728 184.091 49.2202 184.091 45.4546C184.091 41.6891 181.038 38.6365 177.273 38.6365C173.507 38.6365 170.454 41.6891 170.454 45.4546C170.454 49.2202 173.507 52.2728 177.273 52.2728Z" fill="#FF6E91"/>
</g>
</g>
<g id="Group_8">
<g id="Group_9">
<path id="Vector_15" d="M88.6364 51.1363C92.402 51.1363 95.4546 48.0837 95.4546 44.3182C95.4546 40.5526 92.402 37.5 88.6364 37.5C84.8708 37.5 81.8182 40.5526 81.8182 44.3182C81.8182 48.0837 84.8708 51.1363 88.6364 51.1363Z" fill="#A5C3DC"/>
</g>
<g id="Group_10">
<path id="Vector_16" d="M115.909 51.1363C119.675 51.1363 122.727 48.0837 122.727 44.3182C122.727 40.5526 119.675 37.5 115.909 37.5C112.144 37.5 109.091 40.5526 109.091 44.3182C109.091 48.0837 112.144 51.1363 115.909 51.1363Z" fill="#A5C3DC"/>
</g>
</g>
<g id="Group_11">
<path id="Vector_17" d="M68.1818 0H54.5455C50.7797 0 47.7273 3.05241 47.7273 6.81818H75C75 3.05241 71.9476 0 68.1818 0Z" fill="#555A6E"/>
</g>
<g id="Group_12">
<path id="Vector_18" d="M150 0H136.364C132.598 0 129.545 3.05241 129.545 6.81818H156.818C156.818 3.05241 153.766 0 150 0Z" fill="#555A6E"/>
</g>
</g>
</svg>
