<svg width="120" height="93" viewBox="0 0 120 93" fill="none" xmlns="http://www.w3.org/2000/svg">
<path fill-rule="evenodd" clip-rule="evenodd" d="M118.933 71.1787C116.589 74.1483 110.846 76.2666 110.846 76.2666L68.124 91.6753V80.3117L99.5644 69.063C103.132 67.7794 103.68 65.9649 100.78 65.0124C97.8853 64.0572 92.644 64.331 89.0733 65.62L68.124 73.0288V61.2355L69.3315 60.8249C69.3315 60.8249 75.3851 58.6737 83.8974 57.7268C92.4095 56.7854 102.832 57.8555 111.015 60.97C120.236 63.8958 121.274 68.2091 118.933 71.1787ZM72.1906 51.8287V22.7683C72.1906 19.3554 71.5637 16.2134 68.3748 15.3239C65.9326 14.5384 64.4171 16.8155 64.4171 20.2257V93L44.8713 86.7709V0C53.1819 1.54909 65.2893 5.21106 71.7981 7.41427C88.3511 13.1207 93.9631 20.223 93.9631 36.2256C93.9631 51.8233 84.3743 57.735 72.1906 51.8287ZM9.00728 79.124C-0.458915 76.4472 -2.03434 70.8693 2.28037 67.6563C6.26799 64.6896 13.0494 62.4561 13.0494 62.4561L41.0746 52.4499V63.8575L20.9075 71.1047C17.3451 72.3883 16.7972 74.2057 19.6918 75.1581C22.5892 76.1106 27.8334 75.8396 31.4013 74.5533L41.0746 71.0282V81.2341C40.4613 81.3436 39.7771 81.4529 39.1448 81.5598C29.4687 83.1472 19.1631 82.4848 9.00728 79.124ZM112.708 83.6425C113.931 83.6425 115.079 84.1187 115.943 84.9972C116.807 85.8621 117.284 87.0172 117.284 88.2434C117.284 89.4749 116.807 90.6244 115.943 91.4893C115.079 92.3622 113.931 92.8386 112.708 92.8386C111.484 92.8386 110.339 92.3622 109.472 91.4893C108.608 90.6244 108.134 89.4749 108.134 88.2434C108.134 85.7088 110.183 83.6425 112.708 83.6425ZM108.903 88.2434C108.903 89.2641 109.298 90.2249 110.017 90.9418C110.734 91.6699 111.694 92.064 112.708 92.064C114.809 92.064 116.512 90.3507 116.512 88.2434C116.512 87.2197 116.12 86.2589 115.398 85.5391C114.681 84.8112 113.721 84.4198 112.708 84.4198C111.694 84.4198 110.734 84.8112 110.017 85.5391C109.298 86.2589 108.903 87.2197 108.903 88.2434ZM114.089 85.7665C114.591 85.988 114.844 86.415 114.844 87.0226C114.844 87.3346 114.779 87.5973 114.645 87.8025C114.55 87.9505 114.414 88.0708 114.261 88.1747C114.381 88.246 114.487 88.3308 114.566 88.4294C114.675 88.5717 114.738 88.7989 114.746 89.108L114.771 89.7622C114.779 89.9374 114.79 90.0715 114.817 90.1536C114.844 90.2741 114.896 90.3507 114.962 90.3753L115.03 90.4082V90.4822V90.5942V90.7064H114.918H114.108H114.043L114.01 90.649C113.983 90.5944 113.964 90.5314 113.945 90.4493C113.931 90.3753 113.918 90.2468 113.909 90.0496L113.869 89.2368C113.858 88.9549 113.762 88.7797 113.582 88.6867C113.471 88.6348 113.285 88.61 113.034 88.61H111.647V90.5944V90.7066H111.533H110.873H110.761V90.5944V85.7034V85.5912H110.873H113.127C113.514 85.5912 113.839 85.6487 114.089 85.7665ZM111.647 87.8273H113.059C113.343 87.8273 113.569 87.7753 113.73 87.6684C113.877 87.5618 113.948 87.3675 113.948 87.0856C113.948 86.7789 113.847 86.5793 113.634 86.4724C113.517 86.415 113.353 86.3821 113.146 86.3821H111.647V87.8273Z" fill="#006DCA"/>
</svg>
