<svg width="43" height="43" viewBox="0 0 43 43" fill="none" xmlns="http://www.w3.org/2000/svg">
<g clip-path="url(#clip0)">
<path d="M31.7024 14.5609C26.771 11.8028 18.8561 7.37377 6.57937 0.49976C5.75167 -0.0468675 4.79936 -0.118502 3.97656 0.159994L25.0399 21.2234L31.7024 14.5609Z" fill="#32BBFF"/>
<path d="M3.97654 0.159912C3.82233 0.212146 3.67226 0.275157 3.52874 0.351269C2.62013 0.842762 1.95245 1.78852 1.95245 2.98467V39.4619C1.95245 40.658 2.62005 41.6038 3.52874 42.0952C3.67201 42.1712 3.822 42.2345 3.97605 42.2871L25.0399 21.2233L3.97654 0.159912Z" fill="#32BBFF"/>
<path d="M25.0399 21.2234L3.97601 42.2872C4.79906 42.5677 5.75137 42.5016 6.57931 41.947C18.4851 35.2802 26.3108 30.9037 31.2992 28.122C31.4381 28.044 31.5741 27.9677 31.7086 27.8922L25.0399 21.2234Z" fill="#32BBFF"/>
<path d="M1.95245 21.2234V39.462C1.95245 40.6582 2.62005 41.6039 3.52874 42.0953C3.67201 42.1713 3.822 42.2346 3.97605 42.2872L25.0399 21.2234H1.95245Z" fill="#2C9FD9"/>
<path d="M6.57935 0.499776C5.59645 -0.149246 4.43736 -0.130757 3.52875 0.351449L24.7202 21.543L31.7023 14.561C26.771 11.8028 18.856 7.37379 6.57935 0.499776Z" fill="#29CC5E"/>
<path d="M24.7204 20.9039L3.52875 42.0954C4.43744 42.5775 5.59645 42.6054 6.57935 41.9471C18.4851 35.2802 26.3108 30.9037 31.2992 28.1221C31.4381 28.0441 31.5742 27.9678 31.7086 27.8923L24.7204 20.9039Z" fill="#D93F21"/>
<path d="M40.4975 21.2234C40.4975 20.2127 39.9876 19.1928 38.9768 18.6272C38.9768 18.6272 37.0865 17.5725 31.2925 14.3317L24.4008 21.2234L31.2992 28.122C37.0297 24.9045 38.9767 23.8196 38.9767 23.8196C39.9876 23.2541 40.4975 22.2341 40.4975 21.2234Z" fill="#FFD500"/>
<path d="M38.9768 23.8196C39.9876 23.254 40.4975 22.2341 40.4975 21.2234H24.4008L31.2992 28.1219C37.0297 24.9045 38.9768 23.8196 38.9768 23.8196Z" fill="#FFAA00"/>
</g>
<defs>
<clipPath id="clip0">
<rect width="42.45" height="42.45" fill="white"/>
</clipPath>
</defs>
</svg>
