<svg width="99" height="99" viewBox="0 0 99 99" fill="none" xmlns="http://www.w3.org/2000/svg">
<path d="M49.5 99C76.8379 99 98.9998 76.8381 98.9998 49.5C98.9998 22.162 76.8379 0 49.5 0C22.1619 0 0 22.162 0 49.5C0 76.8381 22.1619 99 49.5 99Z" fill="url(#paint0_linear)"/>
<path fill-rule="evenodd" clip-rule="evenodd" d="M55.9004 48.6669L75.9593 47.6274L80.6873 30.9082L66.8496 19.9144L49.8428 34.3508L55.9004 48.6669Z" fill="url(#paint1_linear)"/>
<path fill-rule="evenodd" clip-rule="evenodd" d="M66.8929 49.487L76.7248 47.0253L81.6168 39.6583L71.7169 29.7584L59.468 42.062L66.8929 49.487Z" fill="url(#paint2_linear)"/>
<path fill-rule="evenodd" clip-rule="evenodd" d="M28.0085 78.4732L43.747 76.8863L47.1076 58.1982L30.6996 53.8222L21.2945 65.1409L28.0085 78.4732Z" fill="url(#paint3_linear)"/>
<path d="M65.5876 17.3256C55.3357 17.3256 47.0252 25.6362 47.0252 35.888C47.0293 36.3867 47.0533 36.885 47.0976 37.3816C43.9058 41.2817 35.2041 51.1106 34.4422 51.9899C28.4609 52.0712 23.1121 55.7337 20.8733 61.281C17.8106 68.8896 21.4965 77.5405 29.1056 80.6024C36.7143 83.6649 45.3652 79.9791 48.427 72.37C49.106 70.67 49.4649 68.859 49.4857 67.0286L64.0793 54.378C64.5808 54.4226 65.0841 54.4468 65.5876 54.4504C75.8394 54.4504 84.1501 46.1397 84.1501 35.888C84.1501 25.6362 75.8394 17.3256 65.5876 17.3256ZM65.5876 24.7505C71.7385 24.7505 76.7251 29.7369 76.7251 35.888C76.7251 42.0391 71.7385 47.0254 65.5876 47.0254C59.4366 47.0254 54.4502 42.0391 54.4502 35.888C54.4502 29.7369 59.4366 24.7505 65.5876 24.7505ZM34.7662 56.9256C35.9941 56.94 37.2089 57.1824 38.348 57.6409C43.421 59.6829 45.8776 65.4511 43.8347 70.5236C41.7927 75.5963 36.0245 78.053 30.952 76.0101C25.879 73.9681 23.4226 68.1999 25.4655 63.1274C26.9903 59.3402 30.6836 56.8774 34.7662 56.9256Z" fill="white"/>
<path d="M65.5872 44.5501C70.3712 44.5501 74.2495 40.6715 74.2495 35.8873C74.2495 31.1033 70.3712 27.225 65.5872 27.225C60.803 27.225 56.9246 31.1033 56.9246 35.8873C56.9246 40.6715 60.803 44.5501 65.5872 44.5501Z" fill="white"/>
<path d="M2.65378 45.9475C2.54937 47.1291 2.4897 48.3144 2.47491 49.5005C2.48435 53.9514 3.12559 58.3783 4.3795 62.6489L31.88 73.7138C33.707 74.4483 35.7509 74.427 37.5621 73.6546C39.3733 72.8824 40.8035 71.4221 41.5382 69.5953C42.2727 67.7683 42.2515 65.7245 41.4791 63.9132C40.7066 62.102 39.2465 60.6718 37.4198 59.9371L2.65378 45.9475Z" fill="white"/>
<defs>
<linearGradient id="paint0_linear" x1="49.3789" y1="1.50762e-09" x2="49.4999" y2="99" gradientUnits="userSpaceOnUse">
<stop stop-color="#101D2E"/>
<stop offset="0.359375" stop-color="#101D2E"/>
<stop offset="1" stop-color="#1381B4"/>
</linearGradient>
<linearGradient id="paint1_linear" x1="57.0818" y1="27.4714" x2="93.9196" y2="58.1291" gradientUnits="userSpaceOnUse">
<stop stop-color="#31363B" stop-opacity="0.208"/>
<stop offset="1" stop-color="#31363B" stop-opacity="0"/>
</linearGradient>
<linearGradient id="paint2_linear" x1="69.223" y1="32.1749" x2="103.873" y2="66.8249" gradientUnits="userSpaceOnUse">
<stop stop-color="#31363B" stop-opacity="0.208"/>
<stop offset="1" stop-color="#31363B" stop-opacity="0"/>
</linearGradient>
<linearGradient id="paint3_linear" x1="26.6195" y1="58.8088" x2="63.4575" y2="89.4665" gradientUnits="userSpaceOnUse">
<stop stop-color="#31363B" stop-opacity="0.208"/>
<stop offset="1" stop-color="#31363B" stop-opacity="0"/>
</linearGradient>
</defs>
</svg>
