<svg width="95" height="94" viewBox="0 0 95 94" fill="none" xmlns="http://www.w3.org/2000/svg">
<path d="M67.6311 0L63.1581 0.0367646H58.843H55.4859V7.77324V86.2638V94H67.6251L71.4376 93.9997C84.3703 93.9997 94.9408 83.0745 94.9927 70.0442H94.9938V69.9688C94.9938 69.9618 94.994 69.9549 94.994 69.9479V66.1036H94.9938V62.8921V27.8961H95V24.0519C95 10.9791 84.4081 1.20553e-05 71.4435 1.20553e-05L67.6311 0ZM23.5624 0.000273253C10.6297 0.000273253 0.0593005 10.9255 0.00730782 23.9558H0.0062109V24.0312C0.00620463 24.0382 0.0059409 24.0451 0.0059409 24.0521V27.8964H0.0062109V31.1079V66.1039H0V69.9482C5.22345e-07 83.0209 10.5919 94 23.5565 94H27.3689H45.6011V86.2638V7.77322V0.0367485H42.244H37.9289H27.3749V0.000301382L23.5624 0.000273253ZM23.8591 7.7637V7.77324H27.3746L27.3749 20.3358V7.77324H37.9289V14.5451V86.2638H27.369V66.1039L27.3687 86.2638H24.1239C11.9073 85.1387 8.17299 77.9464 7.67843 68.1047V66.1039H27.369L7.67843 66.1033V27.8972L14.8067 27.897C14.7967 28.0344 14.7899 28.1721 14.7862 28.3099C14.7863 30.6594 15.7119 32.9128 17.3596 34.5741C19.0073 36.2355 21.242 37.1689 23.5721 37.1688C25.9022 37.1688 28.1369 36.2354 29.7845 34.574C31.4321 32.9127 32.3578 30.6594 32.3578 28.3099C32.3555 26.6426 31.8867 25.0099 31.0052 23.5994C30.1237 22.1888 28.8654 21.0577 27.3749 20.336C27.3749 20.336 27.3749 20.3359 27.3749 20.3358C26.1892 19.757 24.8895 19.4545 23.5721 19.4506C21.3148 19.4534 19.1452 20.3322 17.5132 21.9047C15.8812 23.4772 14.912 25.6228 14.8067 27.8964H7.67843V26.0382C8.14086 16.1975 11.8013 8.97601 23.8591 7.76372L23.8591 7.7637ZM74.0381 42.2319C79.2888 42.2319 83.4781 46.4562 83.4781 51.7506C83.4781 57.0451 79.2888 61.2694 74.0381 61.2694C68.7875 61.2694 64.5982 57.0451 64.5982 51.7506C64.5982 46.4562 68.7875 42.2319 74.0381 42.2319Z" fill="#F72F30"/>
</svg>
