<svg width="100" height="100" viewBox="0 0 100 100" fill="none" xmlns="http://www.w3.org/2000/svg">
<path d="M45.0138 99.7943C37.3109 99.0571 29.5124 96.2921 22.8129 91.9235C17.199 88.2628 15.9313 86.7581 15.9313 83.755C15.9313 77.7224 22.5677 67.1569 33.9221 55.1119C40.3707 48.2714 49.3533 40.2531 50.3248 40.4702C52.2128 40.8924 67.3107 55.6109 72.9626 62.5397C81.9002 73.4964 86.009 82.4676 83.9217 86.4671C82.3347 89.5076 72.4888 95.4497 65.2552 97.7326C59.2936 99.6143 51.4638 100.412 45.0138 99.7943ZM8.34909 77.4828C3.68407 70.33 1.32715 63.2881 0.189214 53.1033C-0.186535 49.7402 -0.0518865 47.8164 1.04244 40.9136C2.40636 32.3102 7.30855 22.3572 13.199 16.2319C15.7078 13.6231 15.9318 13.5595 18.9899 14.5891C22.7035 15.8394 26.6693 18.5769 32.8198 24.1352L36.4083 27.3783L34.4488 29.7845C25.3524 40.9536 15.7496 56.7852 12.1307 66.5797C10.1633 71.9045 9.36974 77.2495 10.2163 79.4747C10.7878 80.9774 10.2628 80.4171 8.34909 77.4828ZM90.2345 78.6995C90.6955 76.4509 90.1126 72.3214 88.7464 68.1566C85.7878 59.1367 75.899 42.3564 66.8183 30.9476L63.96 27.3562L67.0524 24.5179C71.0905 20.8122 73.894 18.5933 76.919 16.7089C79.3062 15.2219 82.7174 13.9055 84.1838 13.9055C85.0878 13.9055 88.2705 17.2065 90.8395 20.809C94.8188 26.3886 97.7462 33.1521 99.2293 40.1931C100.188 44.7424 100.267 54.4805 99.3836 59.0188C98.6583 62.7431 97.1269 67.574 95.6331 70.8505C94.5136 73.3055 91.7295 78.0733 90.5095 79.6247C89.8824 80.4224 89.8816 80.4207 90.2345 78.6995ZM45.8386 12.2023C41.6488 10.0758 35.1852 7.79314 31.6148 7.17902C30.3631 6.96371 28.2279 6.84364 26.8698 6.91219C23.924 7.06088 24.0555 6.9069 28.7814 4.6754C32.7102 2.82017 35.9876 1.72922 40.4367 0.795569C45.4414 -0.254719 54.8486 -0.267045 59.7736 0.770231C65.0931 1.89058 71.3571 4.22031 74.8867 6.39124L75.9357 7.03648L73.5288 6.915C68.7459 6.67359 61.7755 8.60483 54.2919 12.2448C52.0345 13.3427 50.0707 14.2196 49.9278 14.1934C49.785 14.1672 47.9448 13.2712 45.8386 12.2023Z" fill="#107C10"/>
</svg>
